<svg xmlns="http://www.w3.org/2000/svg" xmlns:xlink="http://www.w3.org/1999/xlink" viewBox="0 -60 399 361" version="1.1">
<defs>
<filter id="alpha" filterUnits="objectBoundingBox" x="0%" y="0%" width="100%" height="100%">
  <feColorMatrix type="matrix" in="SourceGraphic" values="0 0 0 0 1 0 0 0 0 1 0 0 0 0 1 0 0 0 1 0"/>
</filter>
<mask id="mask0">
  <g filter="url(#alpha)">
<rect x="0" y="0" width="399" height="301" style="fill:rgb(0%,0%,0%);fill-opacity:0.14902;stroke:none;"/>
  </g>
</mask>
<clipPath id="clip1">
  <rect x="0" y="0" width="399" height="301"/>
</clipPath>
<g id="surface5" clip-path="url(#clip1)">
<path style=" stroke:none;fill-rule:nonzero;fill:rgb(25.882353%,25.098039%,27.058824%);fill-opacity:1;" d="M 224.175781 60.640625 C 224.175781 60.640625 231.652344 95.023438 225.679688 124.539062 C 225.679688 124.539062 311.996094 125.226562 325.734375 114.039062 C 326.59375 91.015625 324.660156 48.632812 324.660156 48.632812 C 324.660156 48.632812 343.332031 35.9375 204.679688 34.214844 C 235.589844 40.460938 261.773438 51.003906 224.175781 60.640625 Z M 224.175781 60.640625 "/>
</g>
<mask id="mask1">
  <g filter="url(#alpha)">
<rect x="0" y="0" width="399" height="301" style="fill:rgb(0%,0%,0%);fill-opacity:0.14902;stroke:none;"/>
  </g>
</mask>
<clipPath id="clip2">
  <rect x="0" y="0" width="399" height="301"/>
</clipPath>
<g id="surface8" clip-path="url(#clip2)">
<path style=" stroke:none;fill-rule:nonzero;fill:rgb(25.882353%,25.098039%,27.058824%);fill-opacity:1;" d="M 227.433594 142.660156 C 227.433594 142.660156 235.554688 179.414062 226.914062 208.515625 C 226.914062 208.515625 312.980469 207.222656 326.820312 196.894531 C 326.496094 155.910156 326.304688 131.1875 326.304688 131.1875 C 326.304688 131.1875 327.164062 127.3125 310.28125 124.300781 C 307.703125 126.597656 314 133.050781 230.582031 135.488281 C 236.875 136.503906 229.585938 142.554688 227.433594 142.660156 Z M 227.433594 142.660156 "/>
</g>
<mask id="mask2">
  <g filter="url(#alpha)">
<rect x="0" y="0" width="399" height="301" style="fill:rgb(0%,0%,0%);fill-opacity:0.14902;stroke:none;"/>
  </g>
</mask>
<clipPath id="clip3">
  <rect x="0" y="0" width="399" height="301"/>
</clipPath>
<g id="surface11" clip-path="url(#clip3)">
<path style=" stroke:none;fill-rule:nonzero;fill:rgb(25.882353%,25.098039%,27.058824%);fill-opacity:1;" d="M 228.253906 225.25 C 228.253906 225.25 234.730469 263.578125 226.964844 291.085938 C 226.964844 291.085938 315.875 291.769531 326.496094 278.859375 C 325.855469 249.492188 324.566406 217.222656 324.566406 217.222656 C 324.566406 217.222656 331.96875 209.796875 311.367188 207.539062 C 305.894531 213.671875 261.464844 216.253906 228.628906 217.222656 C 229.917969 221.746094 228.253906 225.25 228.253906 225.25 Z M 228.253906 225.25 "/>
</g>
<mask id="mask3">
  <g filter="url(#alpha)">
<rect x="0" y="0" width="399" height="301" style="fill:rgb(0%,0%,0%);fill-opacity:0.25098;stroke:none;"/>
  </g>
</mask>
<clipPath id="clip4">
  <rect x="0" y="0" width="399" height="301"/>
</clipPath>
<g id="surface14" clip-path="url(#clip4)">
<path style=" stroke:none;fill-rule:nonzero;fill:rgb(25.882353%,25.098039%,27.058824%);fill-opacity:1;" d="M 191.589844 125.015625 C 191.589844 125.015625 200.816406 129.964844 192.660156 135.34375 C 218.847656 137.066406 303.625 133.839844 310.28125 125.230469 C 311.996094 121.359375 309.421875 119.207031 309.421875 119.207031 C 309.421875 119.207031 250.613281 126.523438 191.589844 125.015625 Z M 191.589844 125.015625 "/>
</g>
<mask id="mask4">
  <g filter="url(#alpha)">
<rect x="0" y="0" width="399" height="301" style="fill:rgb(0%,0%,0%);fill-opacity:0.25098;stroke:none;"/>
  </g>
</mask>
<clipPath id="clip5">
  <rect x="0" y="0" width="399" height="301"/>
</clipPath>
<g id="surface17" clip-path="url(#clip5)">
<path style=" stroke:none;fill-rule:nonzero;fill:rgb(25.882353%,25.098039%,27.058824%);fill-opacity:1;" d="M 191.589844 207.636719 C 191.589844 207.636719 200.816406 212.585938 192.660156 217.964844 C 218.847656 219.683594 303.625 216.457031 310.28125 207.851562 C 311.996094 203.980469 309.421875 201.828125 309.421875 201.828125 C 309.421875 201.828125 250.613281 209.140625 191.589844 207.636719 Z M 191.589844 207.636719 "/>
</g>
<mask id="mask5">
  <g filter="url(#alpha)">
<rect x="0" y="0" width="399" height="301" style="fill:rgb(0%,0%,0%);fill-opacity:0.501961;stroke:none;"/>
  </g>
</mask>
<clipPath id="clip6">
  <rect x="0" y="0" width="399" height="301"/>
</clipPath>
<g id="surface20" clip-path="url(#clip6)">
<path style=" stroke:none;fill-rule:nonzero;fill:rgb(100%,100%,100%);fill-opacity:1;" d="M 163.023438 224.226562 C 156.933594 223.828125 150.449219 223.582031 144.445312 223.128906 C 133.285156 222.265625 123.753906 223.867188 112.808594 221.066406 C 112.132812 220.890625 111.46875 220.667969 110.820312 220.402344 C 110.804688 220.589844 110.160156 219.613281 110.160156 219.808594 C 110.160156 228.519531 110.160156 285.964844 110.160156 285.964844 C 110.160156 285.964844 128.273438 289.179688 166.179688 291.128906 C 166.179688 291.128906 156.175781 264.007812 166.480469 225.277344 C 165.308594 224.988281 164.15625 224.636719 163.023438 224.226562 Z M 163.023438 224.226562 "/>
</g>
<mask id="mask6">
  <g filter="url(#alpha)">
<rect x="0" y="0" width="399" height="301" style="fill:rgb(0%,0%,0%);fill-opacity:0.501961;stroke:none;"/>
  </g>
</mask>
<clipPath id="clip7">
  <rect x="0" y="0" width="399" height="301"/>
</clipPath>
<g id="surface23" clip-path="url(#clip7)">
<path style=" stroke:none;fill-rule:nonzero;fill:rgb(100%,100%,100%);fill-opacity:1;" d="M 126.777344 215.484375 C 116.476562 214.59375 106.222656 212.164062 96.085938 209.140625 C 94.40625 208.722656 92.882812 207.890625 91.363281 207.050781 C 87.285156 207.480469 78.511719 209.121094 78.003906 215.363281 C 78.652344 215.628906 79.316406 215.847656 79.992188 216.027344 C 90.9375 218.824219 101.453125 220.761719 112.613281 221.621094 C 118.625 222.078125 124.699219 222.726562 130.789062 223.128906 C 126.828125 221.707031 121.542969 218.933594 126.777344 215.484375 Z M 126.777344 215.484375 "/>
</g>
<mask id="mask7">
  <g filter="url(#alpha)">
<rect x="0" y="0" width="399" height="301" style="fill:rgb(0%,0%,0%);fill-opacity:0.501961;stroke:none;"/>
  </g>
</mask>
<clipPath id="clip8">
  <rect x="0" y="0" width="399" height="301"/>
</clipPath>
<g id="surface26" clip-path="url(#clip8)">
<path style=" stroke:none;fill-rule:nonzero;fill:rgb(100%,100%,100%);fill-opacity:1;" d="M 93.730469 202.859375 L 93.417969 206.898438 C 93.417969 206.898438 92.605469 206.917969 91.355469 207.050781 C 92.875 207.890625 94.398438 208.722656 96.074219 209.140625 C 106.222656 212.15625 116.484375 214.59375 126.769531 215.484375 C 127.320312 215.128906 127.894531 214.804688 128.484375 214.519531 C 128.484375 214.519531 106.894531 209.492188 127.839844 207.261719 C 116.425781 205.351562 105.160156 202.339844 93.730469 202.859375 Z M 93.730469 202.859375 "/>
</g>
<mask id="mask8">
  <g filter="url(#alpha)">
<rect x="0" y="0" width="399" height="301" style="fill:rgb(0%,0%,0%);fill-opacity:0.501961;stroke:none;"/>
  </g>
</mask>
<clipPath id="clip9">
  <rect x="0" y="0" width="399" height="301"/>
</clipPath>
<g id="surface29" clip-path="url(#clip9)">
<path style=" stroke:none;fill-rule:nonzero;fill:rgb(100%,100%,100%);fill-opacity:1;" d="M 90.234375 124.335938 C 86.03125 124.769531 79.128906 126.210938 78.046875 131.042969 C 78.003906 131.230469 77.96875 131.453125 77.929688 131.710938 C 87.722656 136.082031 99.136719 136.417969 110.027344 137.925781 C 111.316406 138.140625 112.390625 138.355469 113.675781 138.355469 C 117.613281 138.644531 121.546875 138.71875 125.480469 138.808594 C 121.011719 137.519531 117.046875 135.492188 119.078125 132.613281 C 111.199219 132.007812 103.449219 130.246094 96.078125 127.382812 C 94.0625 126.503906 92.109375 125.484375 90.234375 124.335938 Z M 90.234375 124.335938 "/>
</g>
<mask id="mask9">
  <g filter="url(#alpha)">
<rect x="0" y="0" width="399" height="301" style="fill:rgb(0%,0%,0%);fill-opacity:0.501961;stroke:none;"/>
  </g>
</mask>
<clipPath id="clip10">
  <rect x="0" y="0" width="399" height="301"/>
</clipPath>
<g id="surface32" clip-path="url(#clip10)">
<path style=" stroke:none;fill-rule:nonzero;fill:rgb(100%,100%,100%);fill-opacity:1;" d="M 92.746094 119.992188 L 93.503906 124.15625 C 93.503906 124.15625 92.148438 124.144531 90.234375 124.335938 C 92.109375 125.484375 94.0625 126.503906 96.078125 127.382812 C 103.449219 130.246094 111.199219 132.007812 119.078125 132.613281 C 119.261719 132.359375 119.464844 132.121094 119.6875 131.902344 C 119.6875 131.902344 111.980469 128.890625 115.808594 122.464844 C 111.6875 121.625 107.636719 120.800781 103.589844 120.5 C 99.976562 120.179688 96.359375 120.070312 92.746094 119.992188 Z M 92.746094 119.992188 "/>
</g>
<mask id="mask10">
  <g filter="url(#alpha)">
<rect x="0" y="0" width="399" height="301" style="fill:rgb(0%,0%,0%);fill-opacity:0.501961;stroke:none;"/>
  </g>
</mask>
<clipPath id="clip11">
  <rect x="0" y="0" width="399" height="301"/>
</clipPath>
<g id="surface35" clip-path="url(#clip11)">
<path style=" stroke:none;fill-rule:nonzero;fill:rgb(100%,100%,100%);fill-opacity:1;" d="M 226.789062 36.160156 C 226.789062 36.160156 110.242188 27.121094 110.027344 56.597656 L 110.027344 120.285156 C 110.027344 120.285156 112.820312 122.433594 124.839844 123.296875 L 124.941406 123.863281 C 126.527344 123.898438 128.117188 123.9375 129.703125 124 C 130.261719 123.632812 130.914062 123.425781 131.582031 123.40625 C 136.15625 123.28125 140.730469 123.660156 145.265625 124.246094 C 149.46875 124.785156 153.949219 125.582031 157.8125 125.871094 L 159.050781 125.957031 C 162.53125 125.507812 166.023438 125.277344 169.523438 125.128906 C 167.164062 117.363281 160.882812 89.132812 170.132812 59.179688 L 180.863281 60.472656 C 180.863281 60.472656 125.910156 40.890625 226.789062 36.160156 Z M 226.789062 36.160156 "/>
</g>
<mask id="mask11">
  <g filter="url(#alpha)">
<rect x="0" y="0" width="399" height="301" style="fill:rgb(0%,0%,0%);fill-opacity:0.501961;stroke:none;"/>
  </g>
</mask>
<clipPath id="clip12">
  <rect x="0" y="0" width="399" height="301"/>
</clipPath>
<g id="surface38" clip-path="url(#clip12)">
<path style=" stroke:none;fill-rule:nonzero;fill:rgb(100%,100%,100%);fill-opacity:1;" d="M 166.691406 141.585938 C 166.691406 141.585938 161.914062 142.46875 157.460938 141.175781 C 153.527344 141.085938 149.589844 141.011719 145.65625 140.722656 C 144.371094 140.722656 143.296875 140.507812 142.007812 140.292969 C 135.019531 139.324219 128.027344 140.34375 121.175781 138.96875 C 119.609375 138.929688 118.042969 138.933594 116.476562 138.914062 C 114.25 138.917969 112.03125 138.78125 109.824219 138.503906 C 108.785156 153.578125 109.378906 204.195312 109.378906 204.195312 C 109.378906 204.195312 118.839844 206.578125 125.921875 206.578125 L 125.910156 206.730469 C 131.023438 206.5 136.105469 206.976562 141.183594 207.742188 C 149.273438 208.007812 157.367188 208.226562 165.464844 208.332031 C 163.714844 200.574219 158.601562 171.316406 166.691406 141.585938 Z M 166.691406 141.585938 "/>
</g>
</defs>
<g id="surface1">
<path style=" stroke:none;fill-rule:nonzero;fill:rgb(87.843137%,87.843137%,87.843137%);fill-opacity:1;" d="M 76.679688 113.3125 C 76.679688 113.3125 84.40625 124.609375 191.292969 125.253906 C 296.890625 128.480469 326.183594 115.25 326.183594 115.25 L 327.46875 46.832031 C 327.46875 46.832031 322.960938 57.15625 209.636719 59.09375 C 96.3125 61.03125 76.996094 48.121094 76.996094 48.121094 Z M 76.679688 113.3125 "/>
<path style=" stroke:none;fill-rule:nonzero;fill:rgb(87.843137%,87.843137%,87.843137%);fill-opacity:1;" d="M 76.679688 195.933594 C 76.679688 195.933594 84.40625 207.226562 191.292969 207.871094 C 296.890625 211.101562 326.183594 197.867188 326.183594 197.867188 L 327.46875 129.449219 C 327.46875 129.449219 322.960938 139.777344 209.636719 141.714844 C 96.3125 143.648438 76.996094 130.742188 76.996094 130.742188 Z M 76.679688 195.933594 "/>
<path style=" stroke:none;fill-rule:nonzero;fill:rgb(87.843137%,87.843137%,87.843137%);fill-opacity:1;" d="M 76.679688 279.410156 C 76.679688 279.410156 84.40625 290.707031 191.292969 291.351562 C 296.890625 294.578125 326.183594 281.347656 326.183594 281.347656 L 327.46875 212.929688 C 327.46875 212.929688 322.960938 223.257812 209.636719 225.191406 C 96.3125 227.128906 76.996094 214.21875 76.996094 214.21875 Z M 76.679688 279.410156 "/>
<path style=" stroke:none;fill-rule:nonzero;fill:rgb(75.686275%,74.901961%,74.901961%);fill-opacity:1;" d="M 92.929688 206.777344 C 92.929688 206.777344 79.335938 208.355469 77.761719 213.804688 C 77.761719 213.804688 89.234375 224.328125 199.65625 224.972656 C 310.082031 225.617188 327.464844 212.925781 327.464844 212.925781 C 327.464844 212.925781 318.007812 206.765625 310.136719 207.054688 C 310.421875 210.066406 306.988281 212.792969 286.671875 214.800781 C 266.351562 216.808594 95.980469 223.425781 92.929688 206.777344 Z M 92.929688 206.777344 "/>
<path style=" stroke:none;fill-rule:nonzero;fill:rgb(75.686275%,74.901961%,74.901961%);fill-opacity:1;" d="M 92.929688 123.726562 C 92.929688 123.726562 79.335938 125.304688 77.761719 130.753906 C 77.761719 130.753906 89.234375 141.277344 199.65625 141.925781 C 310.082031 142.570312 327.464844 129.875 327.464844 129.875 C 327.464844 129.875 318.007812 123.71875 310.136719 124.007812 C 310.421875 127.019531 306.988281 129.742188 286.671875 131.75 C 266.351562 133.761719 95.980469 140.378906 92.929688 123.726562 Z M 92.929688 123.726562 "/>
<path style=" stroke:none;fill-rule:nonzero;fill:rgb(75.686275%,74.901961%,74.901961%);fill-opacity:1;" d="M 325.855469 47.035156 C 325.855469 40.332031 270.09375 34.894531 201.308594 34.894531 C 132.523438 34.894531 76.761719 40.332031 76.761719 47.035156 C 76.761719 53.742188 132.523438 59.179688 201.308594 59.179688 C 270.09375 59.179688 325.855469 53.742188 325.855469 47.035156 Z M 325.855469 47.035156 "/>
<path style=" stroke:none;fill-rule:nonzero;fill:rgb(31.372549%,93.72549%,93.72549%);fill-opacity:1;" d="M 93.289062 119.636719 C 93.289062 119.636719 186.136719 131.386719 310.722656 119.765625 C 312.011719 124.929688 309.757812 126.222656 309.757812 126.222656 C 309.757812 126.222656 277.242188 136.226562 195.472656 135.257812 C 113.699219 134.289062 92.773438 126.222656 92.773438 126.222656 Z M 93.289062 119.636719 "/>
<path style=" stroke:none;fill-rule:nonzero;fill:rgb(31.372549%,93.72549%,93.72549%);fill-opacity:1;" d="M 93.074219 202.472656 C 93.074219 202.472656 178.925781 214.953125 310.28125 202.902344 L 309.851562 208.925781 C 309.851562 208.925781 293.109375 220.976562 187.511719 217.964844 C 112.390625 217.101562 94.503906 210.074219 94.503906 210.074219 Z M 93.074219 202.472656 "/>
<path style=" stroke:none;fill-rule:nonzero;fill:rgb(100%,100%,100%);fill-opacity:1;" d="M 215.753906 99.890625 C 215.394531 100.152344 215.019531 100.390625 214.628906 100.601562 C 214.890625 100.445312 213.917969 100.855469 213.789062 100.894531 C 212.917969 101.136719 212.027344 101.320312 211.132812 101.4375 C 209.238281 101.773438 207.328125 101.976562 205.40625 102.046875 C 203.402344 102.113281 200.925781 102.117188 199.269531 101.898438 C 196.828125 101.570312 194.40625 101.109375 191.9375 101.003906 C 191.421875 100.976562 190.902344 101.082031 190.4375 101.308594 L 190.402344 101.308594 C 190.328125 101.285156 190.113281 101.207031 189.988281 101.160156 C 189.863281 101.117188 189.734375 101.035156 189.609375 100.96875 C 189.523438 100.921875 189.4375 100.871094 189.355469 100.820312 C 189.324219 100.789062 189.074219 100.605469 188.984375 100.519531 L 188.941406 100.480469 C 188.8125 100.285156 188.703125 100.082031 188.609375 99.867188 C 187.808594 98.171875 185.363281 97.816406 183.886719 98.71875 C 182.171875 99.765625 181.9375 101.753906 182.738281 103.449219 C 183.710938 105.503906 185.421875 106.785156 187.425781 107.578125 C 187.3125 108.90625 187.894531 110.332031 189.144531 110.902344 C 195.246094 113.683594 203.214844 115.289062 209.535156 112.40625 C 210.734375 111.859375 211.808594 111.066406 212.984375 110.46875 L 213.003906 110.46875 C 213.261719 110.359375 213.519531 110.253906 213.777344 110.152344 C 214.511719 109.851562 215.238281 109.53125 215.964844 109.210938 C 218.636719 108.023438 220.949219 105.929688 220.96875 102.800781 C 220.988281 100.300781 217.878906 98.347656 215.753906 99.890625 Z M 215.753906 99.890625 "/>
<use xlink:href="#surface5" mask="url(#mask0)"/>
<use xlink:href="#surface8" mask="url(#mask1)"/>
<use xlink:href="#surface11" mask="url(#mask2)"/>
<use xlink:href="#surface14" mask="url(#mask3)"/>
<use xlink:href="#surface17" mask="url(#mask4)"/>
<use xlink:href="#surface20" mask="url(#mask5)"/>
<use xlink:href="#surface23" mask="url(#mask6)"/>
<use xlink:href="#surface26" mask="url(#mask7)"/>
<use xlink:href="#surface29" mask="url(#mask8)"/>
<use xlink:href="#surface32" mask="url(#mask9)"/>
<use xlink:href="#surface35" mask="url(#mask10)"/>
<use xlink:href="#surface38" mask="url(#mask11)"/>
<path style="fill:none;stroke-width:20;stroke-linecap:butt;stroke-linejoin:miter;stroke:rgb(25.882353%,25.098039%,27.058824%);stroke-opacity:1;stroke-miterlimit:10;" d="M 1520.483788 220.481935 C 1520.483788 189.599214 1261.04569 164.580759 941.002271 164.580759 C 620.977052 164.580759 361.538955 189.599214 361.538955 220.481935 C 361.538955 251.346501 620.977052 276.383111 941.002271 276.383111 C 1261.04569 276.383111 1520.483788 251.346501 1520.483788 220.481935 Z M 1520.483788 220.481935 " transform="matrix(0.214632,0,0,0.215154,0,0)"/>
<path style="fill:none;stroke-width:20;stroke-linecap:butt;stroke-linejoin:miter;stroke:rgb(25.882353%,25.098039%,27.058824%);stroke-opacity:1;stroke-miterlimit:10;" d="M 361.557155 220.445624 L 361.557155 528.455837 C 361.557155 559.338559 620.995252 584.357013 941.038671 584.357013 C 1261.06389 584.357013 1520.501987 559.356715 1520.501987 528.455837 L 1520.501987 220.554558 " transform="matrix(0.214632,0,0,0.215154,0,0)"/>
<path style="fill:none;stroke-width:20;stroke-linecap:butt;stroke-linejoin:miter;stroke:rgb(25.882353%,25.098039%,27.058824%);stroke-opacity:1;stroke-miterlimit:10;" d="M 435.302729 555.053831 L 435.302729 583.358454 C 435.302729 609.048666 661.726396 629.891326 941.002271 629.891326 C 1220.296346 629.891326 1446.701813 609.048666 1446.701813 583.358454 L 1446.701813 555.053831 " transform="matrix(0.214632,0,0,0.215154,0,0)"/>
<path style="fill:none;stroke-width:20;stroke-linecap:butt;stroke-linejoin:miter;stroke:rgb(25.882353%,25.098039%,27.058824%);stroke-opacity:1;stroke-miterlimit:10;" d="M 1445.773624 578.347501 C 1493.384291 586.28151 1520.483788 595.468257 1520.483788 605.472007 C 1520.483788 636.354729 1261.04569 661.391339 941.002271 661.391339 C 620.977052 661.391339 361.557155 636.354729 361.557155 605.453852 C 361.557155 595.559035 388.401854 586.172576 435.375529 578.038855 " transform="matrix(0.214632,0,0,0.215154,0,0)"/>
<path style="fill:none;stroke-width:20;stroke-linecap:butt;stroke-linejoin:miter;stroke:rgb(25.882353%,25.098039%,27.058824%);stroke-opacity:1;stroke-miterlimit:10;" d="M 361.557155 605.453852 L 361.557155 913.445909 C 361.557155 944.328631 620.995252 969.365241 941.038671 969.365241 C 1261.06389 969.365241 1520.501987 944.364942 1520.501987 913.445909 L 1520.501987 605.562786 " transform="matrix(0.214632,0,0,0.215154,0,0)"/>
<path style="fill:none;stroke-width:20;stroke-linecap:butt;stroke-linejoin:miter;stroke:rgb(25.882353%,25.098039%,27.058824%);stroke-opacity:1;stroke-miterlimit:10;" d="M 435.302729 936.067821 L 435.302729 967.349966 C 435.302729 993.058334 661.726396 1013.882838 941.002271 1013.882838 C 1220.296346 1013.882838 1446.701813 993.058334 1446.701813 967.349966 L 1446.701813 939.063499 " transform="matrix(0.214632,0,0,0.215154,0,0)"/>
<path style="fill:none;stroke-width:20;stroke-linecap:butt;stroke-linejoin:miter;stroke:rgb(25.882353%,25.098039%,27.058824%);stroke-opacity:1;stroke-miterlimit:10;" d="M 1445.773624 962.357169 C 1493.384291 970.273022 1520.483788 979.477925 1520.483788 989.481676 C 1520.483788 1020.364397 1261.04569 1045.382851 941.002271 1045.382851 C 620.977052 1045.382851 361.557155 1020.364397 361.557155 989.445364 C 361.557155 979.568703 388.401854 970.182244 435.375529 962.048523 " transform="matrix(0.214632,0,0,0.215154,0,0)"/>
<path style="fill:none;stroke-width:20;stroke-linecap:butt;stroke-linejoin:miter;stroke:rgb(25.882353%,25.098039%,27.058824%);stroke-opacity:1;stroke-miterlimit:10;" d="M 361.557155 989.445364 L 361.557155 1297.455578 C 361.557155 1328.338299 620.995252 1353.356754 941.038671 1353.356754 C 1261.06389 1353.356754 1520.501987 1328.356455 1520.501987 1297.455578 L 1520.501987 989.554298 " transform="matrix(0.214632,0,0,0.215154,0,0)"/>
<path style=" stroke:none;fill-rule:nonzero;fill:rgb(25.882353%,25.098039%,27.058824%);fill-opacity:1;" d="M 260.914062 58.75 C 260.914062 43.300781 252.652344 30.78125 242.457031 30.78125 C 232.261719 30.78125 223.996094 43.300781 223.996094 58.75 C 223.996094 74.195312 232.261719 86.71875 242.457031 86.71875 C 252.652344 86.71875 260.914062 74.195312 260.914062 58.75 Z M 260.914062 58.75 "/>
<path style=" stroke:none;fill-rule:nonzero;fill:rgb(25.882353%,25.098039%,27.058824%);fill-opacity:1;" d="M 179.785156 58.75 C 179.785156 43.300781 171.519531 30.78125 161.324219 30.78125 C 151.132812 30.78125 142.867188 43.300781 142.867188 58.75 C 142.867188 74.195312 151.132812 86.71875 161.324219 86.71875 C 171.519531 86.71875 179.785156 74.195312 179.785156 58.75 Z M 179.785156 58.75 "/>
<path style=" stroke:none;fill-rule:nonzero;fill:rgb(100%,100%,100%);fill-opacity:1;" d="M 242.851562 50.359375 C 242.851562 44.296875 239.984375 39.386719 236.445312 39.386719 C 232.910156 39.386719 230.039062 44.296875 230.039062 50.359375 C 230.039062 56.417969 232.910156 61.332031 236.445312 61.332031 C 239.984375 61.332031 242.851562 56.417969 242.851562 50.359375 Z M 242.851562 50.359375 "/>
<path style=" stroke:none;fill-rule:nonzero;fill:rgb(100%,100%,100%);fill-opacity:1;" d="M 162.796875 50.359375 C 162.796875 44.296875 159.925781 39.386719 156.390625 39.386719 C 152.851562 39.386719 149.980469 44.296875 149.980469 50.359375 C 149.980469 56.417969 152.851562 61.332031 156.390625 61.332031 C 159.925781 61.332031 162.796875 56.417969 162.796875 50.359375 Z M 162.796875 50.359375 "/>
<path style=" stroke:none;fill-rule:nonzero;fill:rgb(100%,100%,100%);fill-opacity:1;" d="M 168.195312 69.746094 C 168.195312 73.296875 166.511719 76.175781 164.4375 76.175781 C 162.363281 76.175781 160.683594 73.296875 160.683594 69.746094 C 160.683594 66.195312 162.363281 63.3125 164.4375 63.3125 C 166.511719 63.3125 168.195312 66.195312 168.195312 69.746094 Z M 168.195312 69.746094 "/>
<path style=" stroke:none;fill-rule:nonzero;fill:rgb(100%,100%,100%);fill-opacity:1;" d="M 249.96875 69.746094 C 249.96875 73.296875 248.285156 76.175781 246.210938 76.175781 C 244.140625 76.175781 242.457031 73.296875 242.457031 69.746094 C 242.457031 66.195312 244.136719 63.3125 246.210938 63.3125 C 248.289062 63.3125 249.96875 66.195312 249.96875 69.746094 Z M 249.96875 69.746094 "/>
<path style="fill:none;stroke-width:35;stroke-linecap:butt;stroke-linejoin:miter;stroke:rgb(25.882353%,25.098039%,27.058824%);stroke-opacity:1;stroke-miterlimit:10;" d="M 1517.881217 691.184723 C 1517.881217 691.184723 1598.542714 682.615267 1652.614309 732.379841 C 1685.046346 762.227692 1702.427152 825.935787 1705.812314 904.876453 " transform="matrix(0.214632,0,0,0.215154,0,0)"/>
<path style=" stroke:none;fill-rule:nonzero;fill:rgb(25.882353%,25.098039%,27.058824%);fill-opacity:1;" d="M 379.207031 203.417969 C 379.210938 210.613281 373.390625 216.445312 366.214844 216.445312 C 359.035156 216.449219 353.21875 210.613281 353.21875 203.417969 C 353.214844 196.226562 359.035156 190.390625 366.210938 190.390625 C 373.390625 190.390625 379.207031 196.222656 379.207031 203.417969 Z M 379.207031 203.417969 "/>
<path style="fill:none;stroke-width:35;stroke-linecap:round;stroke-linejoin:miter;stroke:rgb(25.882353%,25.098039%,27.058824%);stroke-opacity:1;stroke-miterlimit:10;" d="M 1731.146431 940.733817 L 1800.069059 1023.9229 " transform="matrix(0.214632,0,0,0.215154,0,0)"/>
<path style="fill:none;stroke-width:35;stroke-linecap:round;stroke-linejoin:miter;stroke:rgb(25.882353%,25.098039%,27.058824%);stroke-opacity:1;stroke-miterlimit:10;" d="M 1721.063743 950.211054 L 1760.575501 1062.086028 " transform="matrix(0.214632,0,0,0.215154,0,0)"/>
<path style="fill:none;stroke-width:35;stroke-linecap:round;stroke-linejoin:miter;stroke:rgb(25.882353%,25.098039%,27.058824%);stroke-opacity:1;stroke-miterlimit:10;" d="M 1705.976112 965.479937 L 1700.097578 1085.74281 " transform="matrix(0.214632,0,0,0.215154,0,0)"/>
<path style="fill:none;stroke-width:35;stroke-linecap:round;stroke-linejoin:miter;stroke:rgb(25.882353%,25.098039%,27.058824%);stroke-opacity:1;stroke-miterlimit:10;" d="M 1684.955347 955.149385 L 1648.792352 1055.223201 " transform="matrix(0.214632,0,0,0.215154,0,0)"/>
<path style="fill:none;stroke-width:35;stroke-linecap:round;stroke-linejoin:miter;stroke:rgb(25.882353%,25.098039%,27.058824%);stroke-opacity:1;stroke-miterlimit:10;" d="M 1665.97296 950.483389 L 1602.200873 981.002998 " transform="matrix(0.214632,0,0,0.215154,0,0)"/>
<path style="fill:none;stroke-width:35;stroke-linecap:butt;stroke-linejoin:miter;stroke:rgb(25.882353%,25.098039%,27.058824%);stroke-opacity:1;stroke-miterlimit:10;" d="M 363.286135 682.996535 C 363.286135 682.996535 294.490905 691.547835 254.651551 674.154745 C 220.435934 659.212664 186.384115 608.413219 174.809044 542.490137 " transform="matrix(0.214632,0,0,0.215154,0,0)"/>
<path style=" stroke:none;fill-rule:nonzero;fill:rgb(25.882353%,25.098039%,27.058824%);fill-opacity:1;" d="M 23.660156 109.066406 C 22.785156 102.394531 27.472656 96.273438 34.128906 95.394531 C 40.785156 94.519531 46.890625 99.21875 47.765625 105.890625 C 48.640625 112.5625 43.957031 118.683594 37.296875 119.5625 C 30.640625 120.4375 24.535156 115.742188 23.660156 109.066406 Z M 23.660156 109.066406 "/>
<path style="fill:none;stroke-width:35;stroke-linecap:round;stroke-linejoin:miter;stroke:rgb(25.882353%,25.098039%,27.058824%);stroke-opacity:1;stroke-miterlimit:10;" d="M 142.10401 510.191276 L 66.192659 437.76848 " transform="matrix(0.214632,0,0,0.215154,0,0)"/>
<path style="fill:none;stroke-width:35;stroke-linecap:round;stroke-linejoin:miter;stroke:rgb(25.882353%,25.098039%,27.058824%);stroke-opacity:1;stroke-miterlimit:10;" d="M 150.785313 499.58839 L 97.532709 394.866733 " transform="matrix(0.214632,0,0,0.215154,0,0)"/>
<path style="fill:none;stroke-width:35;stroke-linecap:round;stroke-linejoin:miter;stroke:rgb(25.882353%,25.098039%,27.058824%);stroke-opacity:1;stroke-miterlimit:10;" d="M 163.616169 482.667346 L 153.861078 363.820611 " transform="matrix(0.214632,0,0,0.215154,0,0)"/>
<path style="fill:none;stroke-width:35;stroke-linecap:round;stroke-linejoin:miter;stroke:rgb(25.882353%,25.098039%,27.058824%);stroke-opacity:1;stroke-miterlimit:10;" d="M 185.601523 490.092997 L 208.187471 387.150592 " transform="matrix(0.214632,0,0,0.215154,0,0)"/>
<path style="fill:none;stroke-width:35;stroke-linecap:round;stroke-linejoin:miter;stroke:rgb(25.882353%,25.098039%,27.058824%);stroke-opacity:1;stroke-miterlimit:10;" d="M 203.127927 489.911441 L 261.203477 452.547161 " transform="matrix(0.214632,0,0,0.215154,0,0)"/>
<path style=" stroke:none;fill-rule:nonzero;fill:rgb(25.882353%,25.098039%,27.058824%);fill-opacity:1;" d="M 271.421875 26.171875 C 271.679688 26.121094 271.886719 25.914062 272.046875 25.550781 C 272.246094 25.058594 272.347656 24.535156 272.335938 24.007812 C 272.386719 22.691406 272.050781 20.78125 271.050781 18.675781 L 270.640625 17.878906 L 270.425781 17.464844 L 270.183594 17.0625 L 269.660156 16.238281 C 269.476562 15.960938 269.273438 15.699219 269.070312 15.421875 C 268.644531 14.851562 268.191406 14.304688 267.710938 13.785156 C 267.46875 13.507812 267.195312 13.261719 266.933594 12.992188 C 266.667969 12.726562 266.394531 12.457031 266.101562 12.210938 L 265.207031 11.457031 C 264.898438 11.210938 264.578125 10.980469 264.253906 10.738281 L 263.761719 10.382812 L 263.246094 10.050781 C 262.898438 9.835938 262.550781 9.605469 262.191406 9.40625 C 260.695312 8.550781 259.125 7.839844 257.496094 7.277344 C 254.53125 6.242188 251.453125 5.566406 248.328125 5.269531 C 245.371094 5.023438 242.558594 5.269531 240.273438 6.003906 C 239.238281 6.324219 238.246094 6.777344 237.328125 7.355469 C 236.628906 7.789062 235.996094 8.324219 235.449219 8.941406 C 234.570312 9.992188 234.410156 10.824219 234.730469 11.214844 C 235.054688 11.601562 235.839844 11.59375 236.921875 11.476562 C 238.320312 11.300781 239.730469 11.226562 241.144531 11.261719 C 243.222656 11.351562 245.292969 11.644531 247.316406 12.132812 C 249.679688 12.679688 252.3125 13.472656 255.089844 14.410156 C 256.320312 14.839844 257.523438 15.335938 258.695312 15.898438 C 258.976562 16.039062 259.25 16.191406 259.523438 16.328125 L 259.9375 16.542969 L 260.328125 16.773438 C 260.585938 16.929688 260.855469 17.070312 261.105469 17.226562 L 261.84375 17.699219 C 262.09375 17.847656 262.316406 18.023438 262.550781 18.183594 C 262.785156 18.347656 263.019531 18.496094 263.234375 18.667969 C 263.660156 19.007812 264.105469 19.3125 264.484375 19.667969 C 264.679688 19.835938 264.890625 19.992188 265.074219 20.160156 L 265.617188 20.660156 L 265.886719 20.90625 L 266.132812 21.152344 L 266.625 21.636719 C 267.894531 22.917969 268.820312 24.097656 269.566406 24.945312 C 269.871094 25.300781 270.210938 25.628906 270.578125 25.925781 C 270.816406 26.121094 271.121094 26.210938 271.421875 26.171875 Z M 271.421875 26.171875 "/>
<path style=" stroke:none;fill-rule:nonzero;fill:rgb(25.882353%,25.098039%,27.058824%);fill-opacity:1;" d="M 129.40625 30.171875 C 129.71875 30.164062 130.011719 30.027344 130.214844 29.792969 C 130.542969 29.449219 130.835938 29.074219 131.09375 28.675781 C 131.722656 27.730469 132.496094 26.417969 133.597656 24.964844 L 134.027344 24.414062 L 134.242188 24.132812 L 134.484375 23.851562 L 134.960938 23.273438 C 135.128906 23.082031 135.3125 22.898438 135.484375 22.699219 C 135.824219 22.304688 136.230469 21.929688 136.613281 21.53125 C 136.804688 21.332031 137.027344 21.148438 137.234375 20.949219 C 137.4375 20.75 137.648438 20.550781 137.878906 20.367188 L 138.554688 19.789062 C 138.789062 19.601562 139.035156 19.421875 139.277344 19.230469 L 139.640625 18.945312 L 140.023438 18.675781 C 140.28125 18.496094 140.535156 18.304688 140.800781 18.128906 C 141.902344 17.402344 143.046875 16.734375 144.222656 16.132812 C 146.875 14.800781 149.410156 13.636719 151.703125 12.761719 C 153.667969 11.984375 155.703125 11.394531 157.78125 11 C 159.191406 10.765625 160.617188 10.636719 162.042969 10.613281 C 163.140625 10.574219 163.917969 10.496094 164.191406 10.042969 C 164.464844 9.589844 164.167969 8.808594 163.136719 7.890625 C 162.5 7.355469 161.789062 6.914062 161.027344 6.585938 C 160.023438 6.148438 158.96875 5.84375 157.886719 5.675781 C 155.503906 5.277344 152.664062 5.4375 149.746094 6.105469 C 146.667969 6.847656 143.683594 7.953125 140.863281 9.398438 C 139.316406 10.183594 137.84375 11.113281 136.46875 12.167969 C 136.132812 12.421875 135.824219 12.699219 135.5 12.964844 L 135.035156 13.363281 L 134.589844 13.792969 C 134.296875 14.078125 134.007812 14.351562 133.730469 14.636719 L 132.941406 15.511719 C 132.675781 15.796875 132.445312 16.105469 132.210938 16.402344 C 131.976562 16.703125 131.746094 16.992188 131.535156 17.296875 C 131.128906 17.910156 130.71875 18.496094 130.394531 19.109375 C 130.226562 19.414062 130.054688 19.707031 129.90625 20.003906 L 129.492188 20.898438 C 129.425781 21.042969 129.363281 21.191406 129.300781 21.332031 C 129.238281 21.46875 129.1875 21.625 129.136719 21.769531 L 128.832031 22.621094 C 128.097656 24.867188 128.007812 26.816406 128.222656 28.128906 C 128.285156 28.660156 128.449219 29.171875 128.710938 29.636719 C 128.914062 29.972656 129.148438 30.152344 129.40625 30.171875 Z M 129.40625 30.171875 "/>
<path style=" stroke:none;fill-rule:nonzero;fill:rgb(25.882353%,25.098039%,27.058824%);fill-opacity:1;" d="M 173.425781 88.523438 C 173.277344 88.523438 173.140625 88.757812 173.039062 89.253906 C 172.949219 89.984375 173.023438 90.726562 173.253906 91.421875 C 173.625 92.515625 174.207031 93.527344 174.96875 94.390625 C 175.941406 95.507812 177.0625 96.488281 178.296875 97.300781 C 180.988281 99.097656 184.519531 100.578125 188.546875 101.582031 C 197.300781 103.679688 206.429688 103.679688 215.183594 101.582031 C 219.210938 100.578125 222.742188 99.097656 225.433594 97.300781 C 226.667969 96.488281 227.789062 95.507812 228.761719 94.390625 C 229.523438 93.527344 230.105469 92.515625 230.476562 91.421875 C 230.707031 90.726562 230.78125 89.984375 230.691406 89.253906 C 230.589844 88.757812 230.453125 88.523438 230.304688 88.523438 C 230.160156 88.523438 230 88.757812 229.832031 89.152344 C 229.582031 89.691406 229.289062 90.210938 228.957031 90.707031 C 228.421875 91.453125 227.785156 92.121094 227.0625 92.6875 C 226.078125 93.460938 225.015625 94.125 223.894531 94.675781 C 221.363281 95.925781 218.082031 96.992188 214.316406 97.714844 C 206.082031 99.230469 197.636719 99.230469 189.398438 97.714844 C 185.636719 96.992188 182.351562 95.925781 179.824219 94.675781 C 178.703125 94.125 177.640625 93.460938 176.65625 92.6875 C 175.933594 92.121094 175.292969 91.453125 174.757812 90.707031 C 174.429688 90.210938 174.136719 89.691406 173.882812 89.152344 C 173.730469 88.757812 173.574219 88.523438 173.425781 88.523438 Z M 173.425781 88.523438 "/>
<path style="fill:none;stroke-width:20;stroke-linecap:butt;stroke-linejoin:miter;stroke:rgb(25.882353%,25.098039%,27.058824%);stroke-opacity:1;stroke-miterlimit:10;" d="M 1032.183251 452.456382 C 1032.183251 493.36101 990.087122 533.539413 938.181303 533.539413 C 886.275484 533.539413 844.179355 493.36101 844.179355 452.456382 " transform="matrix(0.214632,0,0,0.215154,0,0)"/>
</g>
</svg>
